<svg xmlns="http://www.w3.org/2000/svg" width="14.03" height="14" viewBox="0 0 14.03 14">
  <defs>
    <style>
      .cls-1 {
        fill: #fff;
        fill-rule: evenodd;
      }
    </style>
  </defs>
  <path id="proper_fucking_phone" data-name="proper fucking phone" class="cls-1" d="M1705.92,112.517c0.56-.561,2.25-0.654,2.27-0.358s1.52,3.584,1.53,3.881a5.675,5.675,0,0,1-1.29,1.6c-0.29.293,1.98,2.858,2.02,2.907s2.61,2.313,2.91,2.02a5.74,5.74,0,0,1,1.6-1.293c0.29,0.013,3.58,1.526,3.88,1.539s0.2,1.706-.36,2.267c-0.48.479-2.96,2.218-7.27-.888a13.2,13.2,0,0,1-2.36-2.032v0c-0.01,0-.01,0-0.01,0v0a13.326,13.326,0,0,1-2.03-2.359C1703.7,115.478,1705.44,113,1705.92,112.517Z" transform="translate(-1704.97 -112)"/>
</svg>
